<svg viewBox="0 0 575 135" class="roots-wrapper" height="100%" width="100%">
  <svg height="100%" width="100%" data-root-id="8468350670452" x="0" y="0" xmlns="http://www.w3.org/2000/svg"
    preserveAspectRatio="none" zoom="1" editortype="buyer" data-layer-role="rectangle"
    style="fill: rgb(255, 255, 255); ">
    <rect data-layer-id="2389299370455" x="0" y="0" height="100%" width="100%"></rect>
  </svg>
  <svg viewboxsize="575" data-root-id="8986772569619" xmlns="http://www.w3.org/2000/svg"
    xmlns:xlink="http://www.w3.org/1999/xlink" version="1.1" id="Livello_1" x="0" y="0"
    viewBox="20.362586975097656 45.08000564575195 286.50482177734375 138.8199920654297" xml:space="preserve"
    height="134.86490714575234" width="278.342041015625" preserveAspectRatio="none" zoom="1" 
    data-layer-role="icon"
    style="position: absolute; height: 134.865px; width: 278.342px; top: 0px; left: 0px; transform: rotate(0deg);">
    <path class="st0"
      d="M287.54,92.49l-87.55-14.18l-17.48,105.59h103.64c4.04,0,7.32-3.27,7.33-7.31l0.22-76.83   C293.71,96.14,291.1,93.06,287.54,92.49z"
      name="Layer 1" zoom="1" data-layer-id="6629648169619" style="fill: rgb(118, 184, 42);"></path>
    <circle class="st1" cx="264.03" cy="98.21" r="4.86" name="Layer 2" zoom="1" data-layer-id="8685447869620"
      style="fill: rgb(255, 255, 255);"></circle>
    <circle class="st1" cx="236.42" cy="93.74" r="4.86" name="Layer 3" zoom="1" data-layer-id="9208808569620"
      style="fill: rgb(255, 255, 255);"></circle>
    <path class="st2"
      d="M264.03,100.71c-0.26,0-0.53-0.04-0.79-0.13c-1.31-0.44-2.02-1.85-1.58-3.16c0.05-0.14,4.64-14.24-0.01-21.9   c-1.54-2.55-3.95-4.06-7.37-4.61c-3.41-0.55-6.18,0.12-8.45,2.05c-5.68,4.84-6.92,16.64-6.91,20.77c0,1.38-1.12,2.5-2.5,2.5   c0,0,0,0,0,0c-1.38,0-2.5-1.12-2.5-2.5c0-0.7,0.08-17.27,8.67-24.59c3.41-2.9,7.61-3.98,12.49-3.18c4.88,0.79,8.53,3.13,10.85,6.96   c5.84,9.65,0.69,25.4,0.47,26.06C266.05,100.05,265.07,100.71,264.03,100.71z"
      name="Layer 4" zoom="1" data-layer-id="0229814869620" style="fill: rgb(11, 6, 0);"></path>
    <path class="st3" d="M221.77,81.83l10.85,95.23c0.42,3.64-2.43,6.83-6.1,6.83h-19.54V79.44L221.77,81.83z"
      name="Layer 5" zoom="1" data-layer-id="1587193769620" style="fill: rgb(46, 144, 48);"></path>
    <path class="st2"
      d="M268.95,132.31c-0.13,0-0.27-0.01-0.4-0.03c-1.36-0.22-2.29-1.5-2.07-2.87c0.39-2.39,0.1-4.81-0.8-6.63   c-0.44-0.9-1.44-2.46-3.13-2.74c-2.89-0.47-5.94,3.04-6.69,7.65c-0.22,1.36-1.51,2.29-2.87,2.07c-1.36-0.22-2.29-1.5-2.07-2.87   c1.22-7.54,6.67-12.72,12.42-11.79c2.86,0.46,5.35,2.46,6.82,5.47c1.36,2.77,1.8,6.19,1.24,9.63   C271.22,131.44,270.16,132.31,268.95,132.31z"
      name="Layer 6" zoom="1" data-layer-id="0097569669620" style="fill: rgb(11, 6, 0);"></path>
    <path class="st2"
      d="M237.33,127.19c-0.13,0-0.27-0.01-0.4-0.03c-1.36-0.22-2.29-1.5-2.07-2.87c0.39-2.39,0.1-4.81-0.8-6.63   c-0.44-0.9-1.44-2.46-3.13-2.74c-2.9-0.46-5.94,3.04-6.69,7.65c-0.22,1.36-1.51,2.29-2.87,2.07c-1.36-0.22-2.29-1.5-2.07-2.87   c1.22-7.54,6.69-12.72,12.42-11.79c2.86,0.46,5.35,2.46,6.82,5.47c1.36,2.77,1.8,6.19,1.24,9.63   C239.59,126.31,238.53,127.19,237.33,127.19z"
      name="Layer 7" zoom="1" data-layer-id="0959319269620" style="fill: rgb(11, 6, 0);"></path>
    <path class="st2"
      d="M241.54,152.63c-0.44,0-0.89-0.04-1.34-0.11c-2.86-0.46-5.35-2.46-6.82-5.47c-1.36-2.77-1.8-6.19-1.24-9.63   c0.22-1.36,1.51-2.29,2.87-2.07c1.36,0.22,2.29,1.5,2.07,2.87c-0.39,2.39-0.1,4.81,0.8,6.63c0.44,0.91,1.44,2.46,3.13,2.74   c2.89,0.47,5.94-3.04,6.69-7.65c0.22-1.36,1.51-2.29,2.87-2.07c1.36,0.22,2.29,1.5,2.07,2.87   C251.5,147.68,246.77,152.63,241.54,152.63z"
      name="Layer 8" zoom="1" data-layer-id="9790909369620" style="fill: rgb(11, 6, 0);"></path>
    <path class="st4"
      d="M39.69,92.49l87.55-14.18l17.48,105.59H41.09c-4.04,0-7.32-3.27-7.33-7.31l-0.22-76.83   C33.52,96.14,36.13,93.06,39.69,92.49z"
      name="Layer 9" zoom="1" data-layer-id="4192635769620" style="fill: rgb(0, 162, 224);"></path>
    <circle class="st1" cx="63.21" cy="98.21" r="4.86" name="Layer 10" zoom="1" data-layer-id="2210729669620"
      style="fill: rgb(255, 255, 255);"></circle>
    <circle class="st1" cx="90.81" cy="93.74" r="4.86" name="Layer 11" zoom="1" data-layer-id="4616636669620"
      style="fill: rgb(255, 255, 255);"></circle>
    <path class="st2"
      d="M63.21,100.71c-1.05,0-2.02-0.66-2.37-1.71c-0.22-0.67-5.37-16.41,0.47-26.06c2.32-3.83,5.97-6.17,10.85-6.96   c4.88-0.79,9.08,0.28,12.49,3.18c8.59,7.31,8.67,23.88,8.67,24.58c0,1.38-1.12,2.5-2.5,2.5l0,0c-1.38,0-2.5-1.12-2.5-2.5   c0-0.15-0.09-14.97-6.92-20.78c-2.27-1.93-5.04-2.6-8.44-2.05c-3.41,0.55-5.82,2.06-7.37,4.62c-3.86,6.39-1.31,17.97,0,21.89   c0.44,1.31-0.27,2.73-1.58,3.16C63.74,100.67,63.47,100.71,63.21,100.71z"
      name="Layer 12" zoom="1" data-layer-id="6806579769620" style="fill: rgb(11, 6, 0);"></path>
    <path class="st5" d="M105.46,81.83l-10.85,95.23c-0.42,3.64,2.43,6.83,6.1,6.83h19.54V79.44L105.46,81.83z"
      name="Layer 13" zoom="1" data-layer-id="0870569669620" style="fill: rgb(0, 118, 190);"></path>
    <path class="st2"
      d="M58.28,132.31c-1.21,0-2.27-0.87-2.46-2.1c-0.56-3.44-0.12-6.86,1.24-9.63c1.48-3.02,3.96-5.01,6.82-5.47   c5.74-0.93,11.2,4.25,12.42,11.79c0.22,1.36-0.71,2.65-2.07,2.87c-1.37,0.22-2.65-0.71-2.87-2.07c-0.75-4.61-3.81-8.11-6.69-7.65   c-1.69,0.27-2.69,1.83-3.13,2.74c-0.89,1.82-1.18,4.24-0.8,6.63c0.22,1.36-0.71,2.65-2.07,2.87   C58.55,132.3,58.41,132.31,58.28,132.31z"
      name="Layer 14" zoom="1" data-layer-id="7545065669620" style="fill: rgb(11, 6, 0);"></path>
    <path class="st2"
      d="M89.91,127.19c-1.21,0-2.27-0.87-2.46-2.1c-0.56-3.44-0.12-6.86,1.24-9.63c1.48-3.02,3.97-5.01,6.82-5.47   c2.86-0.46,5.85,0.64,8.2,3.04c2.16,2.2,3.66,5.31,4.22,8.75c0.22,1.36-0.71,2.65-2.07,2.87c-1.37,0.22-2.65-0.71-2.87-2.07   c-0.39-2.39-1.43-4.59-2.85-6.04c-0.71-0.72-2.15-1.88-3.84-1.61c-1.69,0.27-2.69,1.83-3.13,2.74c-0.89,1.82-1.18,4.24-0.8,6.63   c0.22,1.36-0.71,2.65-2.07,2.87C90.17,127.18,90.04,127.19,89.91,127.19z"
      name="Layer 15" zoom="1" data-layer-id="7896765869620" style="fill: rgb(11, 6, 0);"></path>
    <path class="st2"
      d="M85.69,152.63c-5.23,0-9.96-4.94-11.08-11.89c-0.22-1.36,0.71-2.65,2.07-2.87c1.36-0.22,2.65,0.7,2.87,2.07   c0.75,4.61,3.81,8.12,6.69,7.65c2.88-0.47,4.68-4.76,3.93-9.37c-0.22-1.36,0.71-2.65,2.07-2.87c1.36-0.22,2.65,0.7,2.87,2.07   c1.22,7.54-2.32,14.17-8.07,15.11C86.58,152.59,86.14,152.63,85.69,152.63z"
      name="Layer 16" zoom="1" data-layer-id="0710211969620" style="fill: rgb(11, 6, 0);"></path>
    <circle class="st6" cx="60.35" cy="142.97" r="5.12" name="Layer 17" zoom="1" data-layer-id="6524018669620"
      style="fill: rgb(128, 207, 245);"></circle>
    <circle class="st4" cx="111.53" cy="133.8" r="5.12" name="Layer 18" zoom="1" data-layer-id="1827971469620"
      style="fill: rgb(0, 162, 224);"></circle>
    <circle class="st7" cx="266.88" cy="142.97" r="5.12" name="Layer 19" zoom="1" data-layer-id="7020548669620"
      style="fill: rgb(180, 206, 69);"></circle>
    <circle class="st0" cx="215.7" cy="133.8" r="5.12" name="Layer 20" zoom="1" data-layer-id="8406369469620"
      style="fill: rgb(118, 184, 42);"></circle>
    <path class="st8"
      d="M121.82,65.26h83.6c3.19,0,5.84,2.47,6.05,5.66l7.18,106.49c0.24,3.5-2.54,6.48-6.05,6.48h-97.97   c-3.51,0-6.29-2.97-6.05-6.48l7.18-106.49C115.98,67.74,118.62,65.26,121.82,65.26z"
      name="Layer 21" zoom="1" data-layer-id="7677851269620" style="fill: rgb(237, 114, 4);"></path>
    <ellipse class="st2" cx="147.6" cy="105.88" rx="7.88" ry="11.12" name="Layer 22" zoom="1"
      data-layer-id="8269832369620" style="fill: rgb(11, 6, 0);"></ellipse>
    <ellipse class="st2" cx="179.64" cy="105.88" rx="7.88" ry="11.12" name="Layer 23" zoom="1"
      data-layer-id="8243346269620" style="fill: rgb(11, 6, 0);"></ellipse>
    <circle class="st1" cx="149.63" cy="75.47" r="4.86" name="Layer 24" zoom="1" data-layer-id="1019924569620"
      style="fill: rgb(255, 255, 255);"></circle>
    <circle class="st1" cx="177.6" cy="75.47" r="4.86" name="Layer 25" zoom="1" data-layer-id="9472209469620"
      style="fill: rgb(255, 255, 255);"></circle>
    <path class="st2"
      d="M177.6,77.97c-0.13,0-0.27-0.01-0.4-0.03c-1.36-0.22-2.29-1.5-2.07-2.87c0.02-0.15,2.31-14.8-3.51-21.62   c-1.93-2.27-4.55-3.37-8.01-3.37s-6.07,1.1-8.01,3.37c-5.81,6.83-3.53,21.47-3.51,21.62c0.22,1.36-0.71,2.65-2.07,2.87   c-1.37,0.22-2.65-0.7-2.87-2.06c-0.11-0.69-2.68-17.06,4.63-25.66c2.9-3.41,6.88-5.14,11.82-5.14c4.94,0,8.92,1.73,11.82,5.14   c7.31,8.59,4.74,24.96,4.63,25.66C179.87,77.1,178.81,77.97,177.6,77.97z"
      name="Layer 26" zoom="1" data-layer-id="0324606769620" style="fill: rgb(11, 6, 0);"></path>
    <path class="st2"
      d="M194.04,124.82c-2.59-0.95-2.7-3.81-2.71-4.16c0.01-1.67-1.33-3.03-3-3.06c-0.01,0-0.03,0-0.04,0  c-1.66,0-3.02,1.33-3.04,3c-0.02,1.05,0.18,2.46,0.71,3.9c-1.71,1.51-9.24,7.45-22.34,7.45c-13.18,0-20.65-5.93-22.34-7.44  c0.53-1.45,0.73-2.85,0.71-3.9c-0.02-1.66-1.38-2.98-3.04-2.98c0,0-0.01,0-0.01,0c-1.67,0-3.02,1.37-3.03,3.03  c0,0.33-0.1,3.21-2.7,4.17c-1.58,0.58-2.39,2.33-1.81,3.9c0.45,1.23,1.62,2,2.86,2c0.35,0,0.7-0.06,1.05-0.19  c0.87-0.32,1.62-0.73,2.29-1.19c2.87,2.43,11.64,8.69,26.04,8.69c14.4,0,23.17-6.26,26.04-8.69c0.67,0.46,1.42,0.87,2.29,1.19  c0.35,0.13,0.7,0.19,1.05,0.19c1.24,0,2.41-0.76,2.86-2C196.43,127.14,195.62,125.4,194.04,124.82z"
      name="Layer 27" zoom="1" data-layer-id="1000778269620" style="fill: rgb(11, 6, 0);"></path>
    <circle class="st9" cx="127.04" cy="118.5" r="5.12" name="Layer 28" zoom="1" data-layer-id="4138981969620"
      style="fill: rgb(251, 186, 0);"></circle>
    <circle class="st9" cx="200.2" cy="118.5" r="5.12" name="Layer 29" zoom="1" data-layer-id="8017044369620"
      style="fill: rgb(251, 186, 0);"></circle>
    <path class="st3"
      d="M289.02,102.75c-2.01-0.99-4.43-0.01-5.17,2.1l-2.12,5.99c-0.3,0.86-0.28,1.8,0.06,2.65l6.26,15.26    c0.78,1.91,2.95,2.83,4.86,2.05l0.7-0.28l0.07-25.46L289.02,102.75z"
      name="Layer 30" zoom="1" data-layer-id="0839878569620" style="fill: rgb(46, 144, 48);"></path>
    <path class="st4"
      d="M285.04,102.39l-1.23,6.23c-0.18,0.89-0.02,1.82,0.44,2.61l8.38,14.21c1.04,1.78,3.33,2.38,5.11,1.33   l7.28-4.26c1.78-1.04,2.38-3.33,1.33-5.11l-8.38-14.21c-0.46-0.79-1.19-1.38-2.06-1.66l-6.04-1.97   C287.73,98.87,285.48,100.19,285.04,102.39z"
      name="Layer 31" zoom="1" data-layer-id="6960798969620" style="fill: rgb(0, 162, 224);"></path>
    <ellipse transform="matrix(0.9802 -0.1979 0.1979 0.9802 -15.223 59.5535)" class="st1" cx="290.36" cy="105.94"
      rx="2.87" ry="2.87" name="Layer 32" zoom="1" data-layer-id="5281517669620" style="fill: rgb(255, 255, 255);">
    </ellipse>
    <path class="st2"
      d="M290.36,107.44c-0.42,0-0.84-0.18-1.14-0.52c-0.23-0.26-5.54-6.5-8.01-14.97c-0.23-0.79,0.22-1.63,1.02-1.86   c0.79-0.23,1.63,0.22,1.86,1.02c2.29,7.85,7.35,13.79,7.4,13.85c0.54,0.63,0.47,1.58-0.16,2.12   C291.05,107.32,290.7,107.44,290.36,107.44z"
      name="Layer 33" zoom="1" data-layer-id="4125211769620" style="fill: rgb(11, 6, 0);"></path>
    <path class="st5"
      d="M38.21,102.75c2.01-0.99,4.43-0.01,5.17,2.1l2.12,5.99c0.3,0.86,0.28,1.8-0.06,2.65l-6.26,15.26    c-0.78,1.91-2.95,2.83-4.86,2.05l-0.7-0.28l-0.07-25.46L38.21,102.75z"
      name="Layer 34" zoom="1" data-layer-id="2670339569620" style="fill: rgb(0, 118, 190);"></path>
    <path class="st8"
      d="M42.19,102.39l1.23,6.23c0.18,0.89,0.02,1.82-0.44,2.61l-8.38,14.21c-1.04,1.78-3.33,2.38-5.11,1.33   l-7.28-4.26c-1.78-1.04-2.38-3.33-1.33-5.11l8.38-14.21c0.46-0.79,1.19-1.38,2.06-1.66l6.04-1.97   C39.5,98.87,41.76,100.19,42.19,102.39z"
      name="Layer 35" zoom="1" data-layer-id="5587886369620" style="fill: rgb(237, 114, 4);"></path>
    <ellipse transform="matrix(0.1979 -0.9802 0.9802 0.1979 -74.2709 121.1236)" class="st1" cx="36.87" cy="105.94"
      rx="2.87" ry="2.87" name="Layer 36" zoom="1" data-layer-id="7157654669620" style="fill: rgb(255, 255, 255);">
    </ellipse>
    <path class="st2"
      d="M36.87,107.44c-0.35,0-0.69-0.12-0.98-0.36c-0.63-0.54-0.7-1.49-0.16-2.11c0.05-0.06,5.12-6.03,7.41-13.85   c0.23-0.79,1.06-1.25,1.86-1.02c0.79,0.23,1.25,1.07,1.02,1.86c-2.48,8.47-7.79,14.71-8.01,14.97   C37.71,107.27,37.3,107.44,36.87,107.44z"
      name="Layer 37" zoom="1" data-layer-id="5918332569620" style="fill: rgb(11, 6, 0);"></path>
    <path class="st10"
      d="M140.36,72.54l1.99,6.04c0.29,0.87,0.24,1.81-0.12,2.64l-6.59,15.13c-0.82,1.89-3.01,2.76-4.9,1.95L123,94.95   c-1.89-0.82-2.76-3.01-1.95-4.9l6.59-15.13c0.36-0.84,1.02-1.51,1.84-1.9l5.76-2.7C137.26,69.38,139.66,70.41,140.36,72.54z"
      name="Layer 38" zoom="1" data-layer-id="1416131569620" style="fill: rgb(215, 78, 15);"></path>
    <path class="st0"
      d="M139.35,68.9l1.83,6.09c0.26,0.87,0.2,1.81-0.19,2.64l-6.98,14.95c-0.87,1.87-3.08,2.68-4.95,1.82l-7.65-3.54   c-1.87-0.87-2.68-3.08-1.82-4.95l6.98-14.95c0.38-0.83,1.06-1.49,1.89-1.85l5.82-2.54C136.33,65.66,138.71,66.76,139.35,68.9z"
      name="Layer 39" zoom="1" data-layer-id="9659882869620" style="fill: rgb(118, 184, 42);"></path>
    <ellipse transform="matrix(0.1092 -0.994 0.994 0.1092 47.2011 198.5756)" class="st1" cx="134.4" cy="72.95" rx="2.87"
      ry="2.87" name="Layer 40" zoom="1" data-layer-id="2287121269620" style="fill: rgb(255, 255, 255);">
    </ellipse>
    <path class="st2"
      d="M134.4,74.45c-0.3,0-0.6-0.09-0.86-0.27c-0.68-0.48-0.84-1.41-0.36-2.09c0.02-0.03,2.3-3.3,4.15-8.04   c0.3-0.77,1.17-1.15,1.94-0.85c0.77,0.3,1.15,1.17,0.85,1.94c-1.99,5.11-4.4,8.54-4.5,8.68C135.33,74.23,134.87,74.45,134.4,74.45z   "
      name="Layer 41" zoom="1" data-layer-id="5580724669620" style="fill: rgb(11, 6, 0);"></path>
  </svg>
  <svg viewboxsize="575" data-root-id="7455873769620" xmlns="http://www.w3.org/2000/svg" y="389.20499938964844"
    viewBox="0 0 0 0" x="287.49498474121094" height="0" width="0"
    fonturl="http://fonts.gstatic.com/s/robotoslab/v16/BngbUXZYTXPIvIBgJJSb6s3BzlRRfKOFbvjovoSWaG5iddG-1A.ttf" zoom="1"
    editortype="buyer" data-layer-role="slogan"
    style="position: absolute; top: 389.205px; width: 0px; height: 0px; left: 287.495px; transform: rotate(0deg);">
    <path d="" transform="translate(0, 0)"></path>
  </svg>
  <svg viewboxsize="575" data-root-id="6083198469620" xmlns="http://www.w3.org/2000/svg" y="46.205"
    viewBox="0.9900000095367432 12.34000015258789 279.95001220703125 41.59000015258789" x="287.5"
    height="41.59000015258789" width="279.95001220703125"
    fonturl="http://fonts.gstatic.com/s/robotoslab/v16/BngbUXZYTXPIvIBgJJSb6s3BzlRRfKOFbvjovoSWaG5iddG-1A.ttf" zoom="1"
    editortype="buyer" data-layer-role="brandName">
    <path
      d="M18.78 45.17L13.64 45.17L3.60 18.12L0.99 17.79L0.99 14.52L12.12 14.52L12.12 17.79L9.35 18.23L15.72 36.90L16.29 38.90L16.42 38.90L17.01 36.92L23.47 18.21L20.29 17.79L20.29 14.52L31.09 14.52L31.09 17.79L28.44 18.12L18.78 45.17ZM42.73 45.62L42.73 45.62Q39.07 45.62 37.02 43.29Q34.96 40.96 34.96 36.06L34.96 36.06L34.96 26.29L32.40 25.66L32.40 22.40L34.96 22.40L40.27 22.40L40.27 36.10Q40.27 39.05 41.21 40.24Q42.14 41.43 44.10 41.43L44.10 41.43Q45.83 41.43 47.04 40.74Q48.25 40.06 48.96 38.80L48.96 38.80L48.96 26.29L46.10 25.66L46.10 22.40L48.96 22.40L54.27 22.40L54.27 41.30L56.96 41.93L56.96 45.17L49.57 45.17L49.22 42.08Q48.14 43.78 46.49 44.70Q44.84 45.62 42.73 45.62ZM82.10 45.17L59.45 45.17L59.45 41.93L62.79 41.30L62.79 18.42L59.45 17.79L59.45 14.52L62.79 14.52L68.10 14.52L71.70 14.52L71.70 17.79L68.10 18.42L68.10 41.11L77.68 41.11L78.03 36.48L82.10 36.48L82.10 45.17ZM95.69 45.62L95.69 45.62Q92.47 45.62 90.08 44.17Q87.70 42.73 86.38 40.18Q85.06 37.64 85.06 34.35L85.06 34.35L85.06 33.47Q85.06 30.14 86.36 27.54Q87.65 24.94 89.93 23.46Q92.20 21.98 95.11 21.98L95.11 21.98Q98.20 21.98 100.29 23.22Q102.39 24.46 103.46 26.74Q104.54 29.03 104.54 32.23L104.54 32.23L104.54 35.26L90.56 35.26L90.52 35.36Q90.60 37.15 91.26 38.54Q91.93 39.93 93.16 40.73Q94.39 41.53 96.16 41.53L96.16 41.53Q98.01 41.53 99.53 41.03Q101.04 40.52 102.33 39.60L102.33 39.60L103.99 42.92Q102.64 44.06 100.56 44.84Q98.47 45.62 95.69 45.62ZM90.58 31.43L90.64 31.53L99.46 31.53L99.46 30.99Q99.46 29.49 99.01 28.37Q98.56 27.24 97.60 26.61Q96.64 25.98 95.17 25.98L95.17 25.98Q93.88 25.98 92.92 26.69Q91.95 27.41 91.37 28.64Q90.79 29.87 90.58 31.43L90.58 31.43ZM119.40 45.62L119.40 45.62Q116.26 45.62 113.57 44.84Q110.87 44.06 108.32 42.25L108.32 42.25L108.32 35.20L112.43 35.20L113.10 39.76Q114.22 40.56 115.85 41.05Q117.48 41.53 119.40 41.53L119.40 41.53Q121.27 41.53 122.54 41.00Q123.82 40.46 124.49 39.49Q125.17 38.52 125.17 37.20L125.17 37.20Q125.17 35.97 124.58 35.03Q123.99 34.08 122.62 33.33Q121.25 32.59 118.91 31.95L118.91 31.95Q115.48 31.03 113.18 29.77Q110.87 28.50 109.70 26.73Q108.54 24.97 108.54 22.57L108.54 22.57Q108.54 20.10 109.87 18.21Q111.21 16.31 113.59 15.22Q115.97 14.12 119.08 14.10L119.08 14.10Q122.49 14.06 125.11 14.99Q127.73 15.91 129.54 17.41L129.54 17.41L129.54 24.00L125.52 24.00L124.77 19.70Q123.90 19.09 122.52 18.66Q121.14 18.23 119.27 18.23L119.27 18.23Q117.67 18.23 116.45 18.76Q115.23 19.28 114.53 20.24Q113.84 21.20 113.84 22.52L113.84 22.52Q113.84 23.68 114.45 24.54Q115.06 25.41 116.49 26.11Q117.92 26.82 120.37 27.53L120.37 27.53Q125.35 28.86 127.92 31.20Q130.49 33.53 130.49 37.15L130.49 37.15Q130.49 39.70 129.11 41.61Q127.73 43.51 125.24 44.56Q122.74 45.62 119.40 45.62ZM144.45 45.17L133.02 45.17L133.02 41.93L136.17 41.30L136.17 16.23L132.83 15.60L132.83 12.34L141.46 12.34L141.46 25.34Q142.57 23.74 144.22 22.86Q145.86 21.98 147.92 21.98L147.92 21.98Q151.44 21.98 153.45 24.22Q155.46 26.46 155.46 31.13L155.46 31.13L155.46 41.30L158.61 41.93L158.61 45.17L147.18 45.17L147.18 41.93L150.17 41.30L150.17 31.09Q150.17 28.48 149.12 27.32Q148.07 26.17 146.03 26.17L146.03 26.17Q144.57 26.17 143.41 26.81Q142.24 27.45 141.46 28.61L141.46 28.61L141.46 41.30L144.45 41.93L144.45 45.17ZM171.33 45.62L171.33 45.62Q168.04 45.62 165.69 44.14Q163.33 42.67 162.07 40.05Q160.80 37.43 160.80 34.02L160.80 34.02L160.80 33.58Q160.80 30.19 162.07 27.58Q163.33 24.97 165.69 23.47Q168.04 21.98 171.29 21.98L171.29 21.98Q174.57 21.98 176.93 23.46Q179.29 24.94 180.55 27.55Q181.81 30.17 181.81 33.58L181.81 33.58L181.81 34.02Q181.81 37.43 180.55 40.05Q179.29 42.67 176.94 44.14Q174.59 45.62 171.33 45.62ZM171.33 41.53L171.33 41.53Q173.10 41.53 174.24 40.57Q175.39 39.62 175.96 37.92Q176.53 36.23 176.53 34.02L176.53 34.02L176.53 33.58Q176.53 31.39 175.96 29.70Q175.39 28.02 174.23 27.05Q173.08 26.08 171.29 26.08L171.29 26.08Q169.54 26.08 168.38 27.05Q167.22 28.02 166.67 29.70Q166.11 31.39 166.11 33.58L166.11 33.58L166.11 34.02Q166.11 36.23 166.67 37.92Q167.22 39.62 168.39 40.57Q169.56 41.53 171.33 41.53ZM196.00 53.93L184.40 53.93L184.40 50.67L187.47 50.04L187.47 26.29L184.13 25.66L184.13 22.40L192.23 22.40L192.57 25.09Q193.62 23.60 195.14 22.79Q196.65 21.98 198.71 21.98L198.71 21.98Q201.49 21.98 203.47 23.49Q205.45 25.01 206.49 27.72Q207.53 30.44 207.53 34.08L207.53 34.08L207.53 34.52Q207.53 37.85 206.48 40.34Q205.43 42.84 203.46 44.23Q201.49 45.62 198.71 45.62L198.71 45.62Q196.76 45.62 195.28 44.93Q193.81 44.25 192.76 42.92L192.76 42.92L192.76 50.04L196.00 50.67L196.00 53.93ZM197.11 41.53L197.11 41.53Q199.73 41.53 200.98 39.61Q202.23 37.68 202.23 34.52L202.23 34.52L202.23 34.08Q202.23 31.72 201.67 29.94Q201.11 28.17 199.97 27.17Q198.82 26.17 197.07 26.17L197.07 26.17Q195.60 26.17 194.52 26.83Q193.43 27.49 192.76 28.69L192.76 28.69L192.76 39.13Q193.43 40.29 194.50 40.91Q195.58 41.53 197.11 41.53ZM225.30 45.17L210.44 45.17L210.44 41.93L213.79 41.30L213.79 18.42L210.44 17.79L210.44 14.52L213.79 14.52L223.89 14.52Q229.05 14.52 231.94 16.62Q234.84 18.71 234.84 22.88L234.84 22.88Q234.84 24.97 233.64 26.62Q232.44 28.27 230.31 29.07L230.31 29.07Q232.16 29.47 233.43 30.52Q234.69 31.58 235.35 33.08Q236.02 34.59 236.02 36.37L236.02 36.37Q236.02 40.69 233.18 42.93Q230.35 45.17 225.30 45.17L225.30 45.17ZM219.09 31.26L219.09 41.09L225.30 41.09Q227.91 41.09 229.31 39.88Q230.71 38.67 230.71 36.37L230.71 36.37Q230.71 34.75 230.18 33.62Q229.66 32.48 228.59 31.87Q227.51 31.26 225.83 31.26L225.83 31.26L219.09 31.26ZM219.09 18.63L219.09 27.45L224.48 27.45Q226.84 27.45 228.19 26.31Q229.53 25.18 229.53 23.13L229.53 23.13Q229.53 20.84 228.10 19.73Q226.67 18.63 223.89 18.63L223.89 18.63L219.09 18.63ZM249.26 45.62L249.26 45.62Q246.04 45.62 243.65 44.17Q241.26 42.73 239.94 40.18Q238.63 37.64 238.63 34.35L238.63 34.35L238.63 33.47Q238.63 30.14 239.92 27.54Q241.22 24.94 243.49 23.46Q245.76 21.98 248.67 21.98L248.67 21.98Q251.76 21.98 253.86 23.22Q255.95 24.46 257.02 26.74Q258.10 29.03 258.10 32.23L258.10 32.23L258.10 35.26L244.12 35.26L244.08 35.36Q244.16 37.15 244.83 38.54Q245.49 39.93 246.72 40.73Q247.95 41.53 249.72 41.53L249.72 41.53Q251.57 41.53 253.09 41.03Q254.60 40.52 255.89 39.60L255.89 39.60L257.55 42.92Q256.20 44.06 254.12 44.84Q252.04 45.62 249.26 45.62ZM244.14 31.43L244.20 31.53L253.02 31.53L253.02 30.99Q253.02 29.49 252.57 28.37Q252.12 27.24 251.16 26.61Q250.20 25.98 248.73 25.98L248.73 25.98Q247.45 25.98 246.48 26.69Q245.51 27.41 244.93 28.64Q244.35 29.87 244.14 31.43L244.14 31.43ZM272.10 45.62L272.10 45.62Q268.88 45.62 266.49 44.17Q264.10 42.73 262.78 40.18Q261.47 37.64 261.47 34.35L261.47 34.35L261.47 33.47Q261.47 30.14 262.76 27.54Q264.05 24.94 266.33 23.46Q268.60 21.98 271.51 21.98L271.51 21.98Q274.60 21.98 276.70 23.22Q278.79 24.46 279.86 26.74Q280.94 29.03 280.94 32.23L280.94 32.23L280.94 35.26L266.96 35.26L266.92 35.36Q267.00 37.15 267.66 38.54Q268.33 39.93 269.56 40.73Q270.79 41.53 272.56 41.53L272.56 41.53Q274.41 41.53 275.93 41.03Q277.44 40.52 278.73 39.60L278.73 39.60L280.39 42.92Q279.04 44.06 276.96 44.84Q274.87 45.62 272.10 45.62ZM266.98 31.43L267.04 31.53L275.86 31.53L275.86 30.99Q275.86 29.49 275.41 28.37Q274.96 27.24 274.00 26.61Q273.04 25.98 271.57 25.98L271.57 25.98Q270.29 25.98 269.32 26.69Q268.35 27.41 267.77 28.64Q267.19 29.87 266.98 31.43L266.98 31.43Z"
      transform="translate(0, 0)"></path>
  </svg>
</svg>