<svg viewBox="0 0 400 280" class="roots-wrapper" preserveAspectRatio="none" height="100%" width="100%">
  <svg viewboxsize="575" data-root-id="5482984253985" x="0" y="0" xmlns="http://www.w3.org/2000/svg"
    preserveAspectRatio="none" width="397.0000305175781" height="273.0000305175781" zoom="1" editortype="buyer"
    data-layer-role="rectangle" style="fill: rgb(255, 255, 255); " height="100%" width="100%">
    <rect data-layer-id="3993389253986"
      style="stroke-width: 0; stroke: rgb(0, 0, 0); width: 397px; height: 273px; top: 0px; left: 0px;" x="0" y="0"
      height="273" width="397"></rect>
  </svg>
  <g transform="rotate(0 197.5 95.6945)">
    <svg viewboxsize="575" data-root-id="8986772569619" xmlns="http://www.w3.org/2000/svg"
      xmlns:xlink="http://www.w3.org/1999/xlink" version="1.1" id="Livello_1" x="0" y="0"
      viewBox="20.362586975097656 45.08000564575195 286.50482177734375 138.8199920654297" xml:space="preserve"
      height="191.3890873946981" width="395" preserveAspectRatio="none" zoom="1" editortype="buyer"
      data-layer-role="icon"
      style="position: absolute; height: 191.389px; width: 395px; top: 0px; left: 0px; transform: rotate(0deg);">
      <path class="st0"
        d="M287.54,92.49l-87.55-14.18l-17.48,105.59h103.64c4.04,0,7.32-3.27,7.33-7.31l0.22-76.83   C293.71,96.14,291.1,93.06,287.54,92.49z"
        name="Layer 1" zoom="1" data-layer-id="6629648169619" style="fill: rgb(118, 184, 42);"></path>
      <circle class="st1" cx="264.03" cy="98.21" r="4.86" name="Layer 2" zoom="1" data-layer-id="8685447869620"
        style="fill: rgb(255, 255, 255);"></circle>
      <circle class="st1" cx="236.42" cy="93.74" r="4.86" name="Layer 3" zoom="1" data-layer-id="9208808569620"
        style="fill: rgb(255, 255, 255);"></circle>
      <path class="st2"
        d="M264.03,100.71c-0.26,0-0.53-0.04-0.79-0.13c-1.31-0.44-2.02-1.85-1.58-3.16c0.05-0.14,4.64-14.24-0.01-21.9   c-1.54-2.55-3.95-4.06-7.37-4.61c-3.41-0.55-6.18,0.12-8.45,2.05c-5.68,4.84-6.92,16.64-6.91,20.77c0,1.38-1.12,2.5-2.5,2.5   c0,0,0,0,0,0c-1.38,0-2.5-1.12-2.5-2.5c0-0.7,0.08-17.27,8.67-24.59c3.41-2.9,7.61-3.98,12.49-3.18c4.88,0.79,8.53,3.13,10.85,6.96   c5.84,9.65,0.69,25.4,0.47,26.06C266.05,100.05,265.07,100.71,264.03,100.71z"
        name="Layer 4" zoom="1" data-layer-id="0229814869620" style="fill: rgb(11, 6, 0);"></path>
      <path class="st3" d="M221.77,81.83l10.85,95.23c0.42,3.64-2.43,6.83-6.1,6.83h-19.54V79.44L221.77,81.83z"
        name="Layer 5" zoom="1" data-layer-id="1587193769620" style="fill: rgb(46, 144, 48);"></path>
      <path class="st2"
        d="M268.95,132.31c-0.13,0-0.27-0.01-0.4-0.03c-1.36-0.22-2.29-1.5-2.07-2.87c0.39-2.39,0.1-4.81-0.8-6.63   c-0.44-0.9-1.44-2.46-3.13-2.74c-2.89-0.47-5.94,3.04-6.69,7.65c-0.22,1.36-1.51,2.29-2.87,2.07c-1.36-0.22-2.29-1.5-2.07-2.87   c1.22-7.54,6.67-12.72,12.42-11.79c2.86,0.46,5.35,2.46,6.82,5.47c1.36,2.77,1.8,6.19,1.24,9.63   C271.22,131.44,270.16,132.31,268.95,132.31z"
        name="Layer 6" zoom="1" data-layer-id="0097569669620" style="fill: rgb(11, 6, 0);"></path>
      <path class="st2"
        d="M237.33,127.19c-0.13,0-0.27-0.01-0.4-0.03c-1.36-0.22-2.29-1.5-2.07-2.87c0.39-2.39,0.1-4.81-0.8-6.63   c-0.44-0.9-1.44-2.46-3.13-2.74c-2.9-0.46-5.94,3.04-6.69,7.65c-0.22,1.36-1.51,2.29-2.87,2.07c-1.36-0.22-2.29-1.5-2.07-2.87   c1.22-7.54,6.69-12.72,12.42-11.79c2.86,0.46,5.35,2.46,6.82,5.47c1.36,2.77,1.8,6.19,1.24,9.63   C239.59,126.31,238.53,127.19,237.33,127.19z"
        name="Layer 7" zoom="1" data-layer-id="0959319269620" style="fill: rgb(11, 6, 0);"></path>
      <path class="st2"
        d="M241.54,152.63c-0.44,0-0.89-0.04-1.34-0.11c-2.86-0.46-5.35-2.46-6.82-5.47c-1.36-2.77-1.8-6.19-1.24-9.63   c0.22-1.36,1.51-2.29,2.87-2.07c1.36,0.22,2.29,1.5,2.07,2.87c-0.39,2.39-0.1,4.81,0.8,6.63c0.44,0.91,1.44,2.46,3.13,2.74   c2.89,0.47,5.94-3.04,6.69-7.65c0.22-1.36,1.51-2.29,2.87-2.07c1.36,0.22,2.29,1.5,2.07,2.87   C251.5,147.68,246.77,152.63,241.54,152.63z"
        name="Layer 8" zoom="1" data-layer-id="9790909369620" style="fill: rgb(11, 6, 0);"></path>
      <path class="st4"
        d="M39.69,92.49l87.55-14.18l17.48,105.59H41.09c-4.04,0-7.32-3.27-7.33-7.31l-0.22-76.83   C33.52,96.14,36.13,93.06,39.69,92.49z"
        name="Layer 9" zoom="1" data-layer-id="4192635769620" style="fill: rgb(0, 162, 224);"></path>
      <circle class="st1" cx="63.21" cy="98.21" r="4.86" name="Layer 10" zoom="1" data-layer-id="2210729669620"
        style="fill: rgb(255, 255, 255);"></circle>
      <circle class="st1" cx="90.81" cy="93.74" r="4.86" name="Layer 11" zoom="1" data-layer-id="4616636669620"
        style="fill: rgb(255, 255, 255);"></circle>
      <path class="st2"
        d="M63.21,100.71c-1.05,0-2.02-0.66-2.37-1.71c-0.22-0.67-5.37-16.41,0.47-26.06c2.32-3.83,5.97-6.17,10.85-6.96   c4.88-0.79,9.08,0.28,12.49,3.18c8.59,7.31,8.67,23.88,8.67,24.58c0,1.38-1.12,2.5-2.5,2.5l0,0c-1.38,0-2.5-1.12-2.5-2.5   c0-0.15-0.09-14.97-6.92-20.78c-2.27-1.93-5.04-2.6-8.44-2.05c-3.41,0.55-5.82,2.06-7.37,4.62c-3.86,6.39-1.31,17.97,0,21.89   c0.44,1.31-0.27,2.73-1.58,3.16C63.74,100.67,63.47,100.71,63.21,100.71z"
        name="Layer 12" zoom="1" data-layer-id="6806579769620" style="fill: rgb(11, 6, 0);"></path>
      <path class="st5" d="M105.46,81.83l-10.85,95.23c-0.42,3.64,2.43,6.83,6.1,6.83h19.54V79.44L105.46,81.83z"
        name="Layer 13" zoom="1" data-layer-id="0870569669620" style="fill: rgb(0, 118, 190);"></path>
      <path class="st2"
        d="M58.28,132.31c-1.21,0-2.27-0.87-2.46-2.1c-0.56-3.44-0.12-6.86,1.24-9.63c1.48-3.02,3.96-5.01,6.82-5.47   c5.74-0.93,11.2,4.25,12.42,11.79c0.22,1.36-0.71,2.65-2.07,2.87c-1.37,0.22-2.65-0.71-2.87-2.07c-0.75-4.61-3.81-8.11-6.69-7.65   c-1.69,0.27-2.69,1.83-3.13,2.74c-0.89,1.82-1.18,4.24-0.8,6.63c0.22,1.36-0.71,2.65-2.07,2.87   C58.55,132.3,58.41,132.31,58.28,132.31z"
        name="Layer 14" zoom="1" data-layer-id="7545065669620" style="fill: rgb(11, 6, 0);"></path>
      <path class="st2"
        d="M89.91,127.19c-1.21,0-2.27-0.87-2.46-2.1c-0.56-3.44-0.12-6.86,1.24-9.63c1.48-3.02,3.97-5.01,6.82-5.47   c2.86-0.46,5.85,0.64,8.2,3.04c2.16,2.2,3.66,5.31,4.22,8.75c0.22,1.36-0.71,2.65-2.07,2.87c-1.37,0.22-2.65-0.71-2.87-2.07   c-0.39-2.39-1.43-4.59-2.85-6.04c-0.71-0.72-2.15-1.88-3.84-1.61c-1.69,0.27-2.69,1.83-3.13,2.74c-0.89,1.82-1.18,4.24-0.8,6.63   c0.22,1.36-0.71,2.65-2.07,2.87C90.17,127.18,90.04,127.19,89.91,127.19z"
        name="Layer 15" zoom="1" data-layer-id="7896765869620" style="fill: rgb(11, 6, 0);"></path>
      <path class="st2"
        d="M85.69,152.63c-5.23,0-9.96-4.94-11.08-11.89c-0.22-1.36,0.71-2.65,2.07-2.87c1.36-0.22,2.65,0.7,2.87,2.07   c0.75,4.61,3.81,8.12,6.69,7.65c2.88-0.47,4.68-4.76,3.93-9.37c-0.22-1.36,0.71-2.65,2.07-2.87c1.36-0.22,2.65,0.7,2.87,2.07   c1.22,7.54-2.32,14.17-8.07,15.11C86.58,152.59,86.14,152.63,85.69,152.63z"
        name="Layer 16" zoom="1" data-layer-id="0710211969620" style="fill: rgb(11, 6, 0);"></path>
      <circle class="st6" cx="60.35" cy="142.97" r="5.12" name="Layer 17" zoom="1" data-layer-id="6524018669620"
        style="fill: rgb(128, 207, 245);"></circle>
      <circle class="st4" cx="111.53" cy="133.8" r="5.12" name="Layer 18" zoom="1" data-layer-id="1827971469620"
        style="fill: rgb(0, 162, 224);"></circle>
      <circle class="st7" cx="266.88" cy="142.97" r="5.12" name="Layer 19" zoom="1" data-layer-id="7020548669620"
        style="fill: rgb(180, 206, 69);"></circle>
      <circle class="st0" cx="215.7" cy="133.8" r="5.12" name="Layer 20" zoom="1" data-layer-id="8406369469620"
        style="fill: rgb(118, 184, 42);"></circle>
      <path class="st8"
        d="M121.82,65.26h83.6c3.19,0,5.84,2.47,6.05,5.66l7.18,106.49c0.24,3.5-2.54,6.48-6.05,6.48h-97.97   c-3.51,0-6.29-2.97-6.05-6.48l7.18-106.49C115.98,67.74,118.62,65.26,121.82,65.26z"
        name="Layer 21" zoom="1" data-layer-id="7677851269620" style="fill: rgb(237, 114, 4);"></path>
      <ellipse class="st2" cx="147.6" cy="105.88" rx="7.88" ry="11.12" name="Layer 22" zoom="1"
        data-layer-id="8269832369620" style="fill: rgb(11, 6, 0);"></ellipse>
      <ellipse class="st2" cx="179.64" cy="105.88" rx="7.88" ry="11.12" name="Layer 23" zoom="1"
        data-layer-id="8243346269620" style="fill: rgb(11, 6, 0);"></ellipse>
      <circle class="st1" cx="149.63" cy="75.47" r="4.86" name="Layer 24" zoom="1" data-layer-id="1019924569620"
        style="fill: rgb(255, 255, 255);"></circle>
      <circle class="st1" cx="177.6" cy="75.47" r="4.86" name="Layer 25" zoom="1" data-layer-id="9472209469620"
        style="fill: rgb(255, 255, 255);"></circle>
      <path class="st2"
        d="M177.6,77.97c-0.13,0-0.27-0.01-0.4-0.03c-1.36-0.22-2.29-1.5-2.07-2.87c0.02-0.15,2.31-14.8-3.51-21.62   c-1.93-2.27-4.55-3.37-8.01-3.37s-6.07,1.1-8.01,3.37c-5.81,6.83-3.53,21.47-3.51,21.62c0.22,1.36-0.71,2.65-2.07,2.87   c-1.37,0.22-2.65-0.7-2.87-2.06c-0.11-0.69-2.68-17.06,4.63-25.66c2.9-3.41,6.88-5.14,11.82-5.14c4.94,0,8.92,1.73,11.82,5.14   c7.31,8.59,4.74,24.96,4.63,25.66C179.87,77.1,178.81,77.97,177.6,77.97z"
        name="Layer 26" zoom="1" data-layer-id="0324606769620" style="fill: rgb(11, 6, 0);"></path>
      <path class="st2"
        d="M194.04,124.82c-2.59-0.95-2.7-3.81-2.71-4.16c0.01-1.67-1.33-3.03-3-3.06c-0.01,0-0.03,0-0.04,0  c-1.66,0-3.02,1.33-3.04,3c-0.02,1.05,0.18,2.46,0.71,3.9c-1.71,1.51-9.24,7.45-22.34,7.45c-13.18,0-20.65-5.93-22.34-7.44  c0.53-1.45,0.73-2.85,0.71-3.9c-0.02-1.66-1.38-2.98-3.04-2.98c0,0-0.01,0-0.01,0c-1.67,0-3.02,1.37-3.03,3.03  c0,0.33-0.1,3.21-2.7,4.17c-1.58,0.58-2.39,2.33-1.81,3.9c0.45,1.23,1.62,2,2.86,2c0.35,0,0.7-0.06,1.05-0.19  c0.87-0.32,1.62-0.73,2.29-1.19c2.87,2.43,11.64,8.69,26.04,8.69c14.4,0,23.17-6.26,26.04-8.69c0.67,0.46,1.42,0.87,2.29,1.19  c0.35,0.13,0.7,0.19,1.05,0.19c1.24,0,2.41-0.76,2.86-2C196.43,127.14,195.62,125.4,194.04,124.82z"
        name="Layer 27" zoom="1" data-layer-id="1000778269620" style="fill: rgb(11, 6, 0);"></path>
      <circle class="st9" cx="127.04" cy="118.5" r="5.12" name="Layer 28" zoom="1" data-layer-id="4138981969620"
        style="fill: rgb(251, 186, 0);"></circle>
      <circle class="st9" cx="200.2" cy="118.5" r="5.12" name="Layer 29" zoom="1" data-layer-id="8017044369620"
        style="fill: rgb(251, 186, 0);"></circle>
      <path class="st3"
        d="M289.02,102.75c-2.01-0.99-4.43-0.01-5.17,2.1l-2.12,5.99c-0.3,0.86-0.28,1.8,0.06,2.65l6.26,15.26    c0.78,1.91,2.95,2.83,4.86,2.05l0.7-0.28l0.07-25.46L289.02,102.75z"
        name="Layer 30" zoom="1" data-layer-id="0839878569620" style="fill: rgb(46, 144, 48);"></path>
      <path class="st4"
        d="M285.04,102.39l-1.23,6.23c-0.18,0.89-0.02,1.82,0.44,2.61l8.38,14.21c1.04,1.78,3.33,2.38,5.11,1.33   l7.28-4.26c1.78-1.04,2.38-3.33,1.33-5.11l-8.38-14.21c-0.46-0.79-1.19-1.38-2.06-1.66l-6.04-1.97   C287.73,98.87,285.48,100.19,285.04,102.39z"
        name="Layer 31" zoom="1" data-layer-id="6960798969620" style="fill: rgb(0, 162, 224);"></path>
      <ellipse transform="matrix(0.9802 -0.1979 0.1979 0.9802 -15.223 59.5535)" class="st1" cx="290.36" cy="105.94"
        rx="2.87" ry="2.87" name="Layer 32" zoom="1" data-layer-id="5281517669620" style="fill: rgb(255, 255, 255);">
      </ellipse>
      <path class="st2"
        d="M290.36,107.44c-0.42,0-0.84-0.18-1.14-0.52c-0.23-0.26-5.54-6.5-8.01-14.97c-0.23-0.79,0.22-1.63,1.02-1.86   c0.79-0.23,1.63,0.22,1.86,1.02c2.29,7.85,7.35,13.79,7.4,13.85c0.54,0.63,0.47,1.58-0.16,2.12   C291.05,107.32,290.7,107.44,290.36,107.44z"
        name="Layer 33" zoom="1" data-layer-id="4125211769620" style="fill: rgb(11, 6, 0);"></path>
      <path class="st5"
        d="M38.21,102.75c2.01-0.99,4.43-0.01,5.17,2.1l2.12,5.99c0.3,0.86,0.28,1.8-0.06,2.65l-6.26,15.26    c-0.78,1.91-2.95,2.83-4.86,2.05l-0.7-0.28l-0.07-25.46L38.21,102.75z"
        name="Layer 34" zoom="1" data-layer-id="2670339569620" style="fill: rgb(0, 118, 190);"></path>
      <path class="st8"
        d="M42.19,102.39l1.23,6.23c0.18,0.89,0.02,1.82-0.44,2.61l-8.38,14.21c-1.04,1.78-3.33,2.38-5.11,1.33   l-7.28-4.26c-1.78-1.04-2.38-3.33-1.33-5.11l8.38-14.21c0.46-0.79,1.19-1.38,2.06-1.66l6.04-1.97   C39.5,98.87,41.76,100.19,42.19,102.39z"
        name="Layer 35" zoom="1" data-layer-id="5587886369620" style="fill: rgb(237, 114, 4);"></path>
      <ellipse transform="matrix(0.1979 -0.9802 0.9802 0.1979 -74.2709 121.1236)" class="st1" cx="36.87" cy="105.94"
        rx="2.87" ry="2.87" name="Layer 36" zoom="1" data-layer-id="7157654669620" style="fill: rgb(255, 255, 255);">
      </ellipse>
      <path class="st2"
        d="M36.87,107.44c-0.35,0-0.69-0.12-0.98-0.36c-0.63-0.54-0.7-1.49-0.16-2.11c0.05-0.06,5.12-6.03,7.41-13.85   c0.23-0.79,1.06-1.25,1.86-1.02c0.79,0.23,1.25,1.07,1.02,1.86c-2.48,8.47-7.79,14.71-8.01,14.97   C37.71,107.27,37.3,107.44,36.87,107.44z"
        name="Layer 37" zoom="1" data-layer-id="5918332569620" style="fill: rgb(11, 6, 0);"></path>
      <path class="st10"
        d="M140.36,72.54l1.99,6.04c0.29,0.87,0.24,1.81-0.12,2.64l-6.59,15.13c-0.82,1.89-3.01,2.76-4.9,1.95L123,94.95   c-1.89-0.82-2.76-3.01-1.95-4.9l6.59-15.13c0.36-0.84,1.02-1.51,1.84-1.9l5.76-2.7C137.26,69.38,139.66,70.41,140.36,72.54z"
        name="Layer 38" zoom="1" data-layer-id="1416131569620" style="fill: rgb(215, 78, 15);"></path>
      <path class="st0"
        d="M139.35,68.9l1.83,6.09c0.26,0.87,0.2,1.81-0.19,2.64l-6.98,14.95c-0.87,1.87-3.08,2.68-4.95,1.82l-7.65-3.54   c-1.87-0.87-2.68-3.08-1.82-4.95l6.98-14.95c0.38-0.83,1.06-1.49,1.89-1.85l5.82-2.54C136.33,65.66,138.71,66.76,139.35,68.9z"
        name="Layer 39" zoom="1" data-layer-id="9659882869620" style="fill: rgb(118, 184, 42);"></path>
      <ellipse transform="matrix(0.1092 -0.994 0.994 0.1092 47.2011 198.5756)" class="st1" cx="134.4" cy="72.95"
        rx="2.87" ry="2.87" name="Layer 40" zoom="1" data-layer-id="2287121269620" style="fill: rgb(255, 255, 255);">
      </ellipse>
      <path class="st2"
        d="M134.4,74.45c-0.3,0-0.6-0.09-0.86-0.27c-0.68-0.48-0.84-1.41-0.36-2.09c0.02-0.03,2.3-3.3,4.15-8.04   c0.3-0.77,1.17-1.15,1.94-0.85c0.77,0.3,1.15,1.17,0.85,1.94c-1.99,5.11-4.4,8.54-4.5,8.68C135.33,74.23,134.87,74.45,134.4,74.45z   "
        name="Layer 41" zoom="1" data-layer-id="5580724669620" style="fill: rgb(11, 6, 0);"></path>
    </svg>
  </g>
  <g transform="rotate(0 287.49498474121094 389.20499938964844)"><svg viewboxsize="575" data-root-id="7455873769620"
      xmlns="http://www.w3.org/2000/svg" y="389.20499938964844" viewBox="0 0 0 0" x="287.49498474121094" height="0"
      width="0"
      fonturl="http://fonts.gstatic.com/s/robotoslab/v16/BngbUXZYTXPIvIBgJJSb6s3BzlRRfKOFbvjovoSWaG5iddG-1A.ttf"
      zoom="1" editortype="buyer" data-layer-role="slogan"
      style="position: absolute; top: 389.205px; width: 0px; height: 0px; left: 287.495px; transform: rotate(0deg);">
      <g data-horizontal-grow="center" zoom="1" root="[object Object]" style="fill: rgb(237, 114, 4); fill-opacity: 1;">
        <path d="" transform="translate(0, 0)"></path>
      </g>
    </svg></g>
  <g transform="rotate(0 197.5 243.345)">
    <svg viewboxsize="575" data-root-id="6083198469620" xmlns="http://www.w3.org/2000/svg" y="214"
      viewBox="1.399999976158142 17.40999984741211 395 58.689998626708984" x="0" height="58.689998626708984" width="395"
      fonturl="http://fonts.gstatic.com/s/robotoslab/v16/BngbUXZYTXPIvIBgJJSb6s3BzlRRfKOFbvjovoSWaG5iddG-1A.ttf"
      zoom="1" editortype="buyer" data-layer-role="brandName"
      style="position: absolute; top: 214px; width: 395px; height: 58.69px; left: 0px; transform: rotate(0deg);">
      <g data-horizontal-grow="center" zoom="1" root="[object Object]" style="fill: rgb(0, 0, 0);">
        <path
          d="M26.49 63.74L19.25 63.74L5.08 25.57L1.40 25.10L1.40 20.49L17.11 20.49L17.11 25.10L13.19 25.72L22.19 52.07L22.99 54.89L23.17 54.89L24.00 52.10L33.12 25.69L28.63 25.10L28.63 20.49L43.87 20.49L43.87 25.10L40.13 25.57L26.49 63.74ZM60.29 64.36L60.29 64.36Q55.13 64.36 52.23 61.08Q49.33 57.80 49.33 50.88L49.33 50.88L49.33 37.10L45.71 36.21L45.71 31.60L49.33 31.60L56.82 31.60L56.82 50.94Q56.82 55.10 58.14 56.77Q59.46 58.45 62.22 58.45L62.22 58.45Q64.66 58.45 66.37 57.49Q68.08 56.52 69.09 54.74L69.09 54.74L69.09 37.10L65.05 36.21L65.05 31.60L69.09 31.60L76.57 31.60L76.57 58.27L80.37 59.17L80.37 63.74L69.95 63.74L69.44 59.37Q67.93 61.78 65.60 63.07Q63.26 64.36 60.29 64.36ZM115.84 63.74L83.88 63.74L83.88 59.17L88.60 58.27L88.60 25.99L83.88 25.10L83.88 20.49L88.60 20.49L96.08 20.49L101.16 20.49L101.16 25.10L96.08 25.99L96.08 58.01L109.60 58.01L110.10 51.47L115.84 51.47L115.84 63.74ZM135.02 64.36L135.02 64.36Q130.48 64.36 127.11 62.33Q123.74 60.29 121.88 56.70Q120.02 53.11 120.02 48.47L120.02 48.47L120.02 47.23Q120.02 42.53 121.85 38.86Q123.68 35.20 126.89 33.10Q130.09 31.01 134.19 31.01L134.19 31.01Q138.56 31.01 141.51 32.76Q144.47 34.51 145.98 37.74Q147.50 40.96 147.50 45.47L147.50 45.47L147.50 49.75L127.78 49.75L127.72 49.90Q127.84 52.42 128.77 54.38Q129.71 56.34 131.44 57.47Q133.18 58.60 135.68 58.60L135.68 58.60Q138.29 58.60 140.43 57.89Q142.57 57.18 144.38 55.87L144.38 55.87L146.73 60.56Q144.83 62.17 141.88 63.26Q138.94 64.36 135.02 64.36ZM127.81 44.34L127.90 44.49L140.34 44.49L140.34 43.72Q140.34 41.61 139.70 40.02Q139.06 38.43 137.71 37.54Q136.36 36.65 134.28 36.65L134.28 36.65Q132.47 36.65 131.10 37.66Q129.74 38.67 128.92 40.41Q128.10 42.15 127.81 44.34L127.81 44.34ZM168.47 64.36L168.47 64.36Q164.04 64.36 160.24 63.26Q156.44 62.17 152.84 59.61L152.84 59.61L152.84 49.66L158.64 49.66L159.59 56.11Q161.16 57.24 163.46 57.92Q165.76 58.60 168.47 58.60L168.47 58.60Q171.11 58.60 172.91 57.84Q174.70 57.09 175.66 55.72Q176.61 54.35 176.61 52.48L176.61 52.48Q176.61 50.76 175.77 49.42Q174.94 48.09 173.01 47.03Q171.08 45.98 167.78 45.09L167.78 45.09Q162.94 43.78 159.69 42.00Q156.44 40.22 154.79 37.72Q153.14 35.23 153.14 31.84L153.14 31.84Q153.14 28.37 155.03 25.69Q156.91 23.02 160.27 21.47Q163.63 19.93 168.02 19.90L168.02 19.90Q172.83 19.84 176.53 21.15Q180.23 22.45 182.78 24.56L182.78 24.56L182.78 33.86L177.11 33.86L176.04 27.80Q174.82 26.94 172.88 26.33Q170.93 25.72 168.29 25.72L168.29 25.72Q166.03 25.72 164.31 26.46Q162.59 27.21 161.61 28.56Q160.63 29.91 160.63 31.78L160.63 31.78Q160.63 33.41 161.49 34.63Q162.35 35.85 164.37 36.84Q166.39 37.84 169.83 38.85L169.83 38.85Q176.87 40.72 180.50 44.02Q184.12 47.31 184.12 52.42L184.12 52.42Q184.12 56.02 182.17 58.71Q180.23 61.39 176.71 62.88Q173.19 64.36 168.47 64.36ZM203.81 63.74L187.68 63.74L187.68 59.17L192.14 58.27L192.14 22.90L187.42 22.01L187.42 17.41L199.59 17.41L199.59 35.76Q201.17 33.50 203.49 32.26Q205.80 31.01 208.71 31.01L208.71 31.01Q213.67 31.01 216.51 34.17Q219.35 37.33 219.35 43.93L219.35 43.93L219.35 58.27L223.80 59.17L223.80 63.74L207.67 63.74L207.67 59.17L211.89 58.27L211.89 43.87Q211.89 40.19 210.41 38.55Q208.92 36.92 206.04 36.92L206.04 36.92Q203.99 36.92 202.34 37.83Q200.69 38.73 199.59 40.36L199.59 40.36L199.59 58.27L203.81 59.17L203.81 63.74ZM241.74 64.36L241.74 64.36Q237.11 64.36 233.78 62.28Q230.45 60.21 228.67 56.51Q226.89 52.81 226.89 48.00L226.89 48.00L226.89 47.37Q226.89 42.59 228.67 38.91Q230.45 35.23 233.78 33.12Q237.11 31.01 241.68 31.01L241.68 31.01Q246.32 31.01 249.64 33.10Q252.97 35.20 254.75 38.88Q256.53 42.56 256.53 47.37L256.53 47.37L256.53 48.00Q256.53 52.81 254.75 56.51Q252.97 60.21 249.66 62.28Q246.35 64.36 241.74 64.36ZM241.74 58.60L241.74 58.60Q244.24 58.60 245.86 57.25Q247.47 55.90 248.28 53.51Q249.08 51.12 249.08 48.00L249.08 48.00L249.08 47.37Q249.08 44.29 248.28 41.91Q247.47 39.53 245.84 38.17Q244.21 36.80 241.68 36.80L241.68 36.80Q239.22 36.80 237.58 38.17Q235.95 39.53 235.16 41.91Q234.38 44.29 234.38 47.37L234.38 47.37L234.38 48.00Q234.38 51.12 235.16 53.51Q235.95 55.90 237.60 57.25Q239.25 58.60 241.74 58.60ZM276.55 76.10L260.19 76.10L260.19 71.49L264.52 70.60L264.52 37.10L259.80 36.21L259.80 31.60L271.24 31.60L271.71 35.40Q273.20 33.30 275.33 32.15Q277.47 31.01 280.38 31.01L280.38 31.01Q284.30 31.01 287.10 33.15Q289.89 35.29 291.36 39.12Q292.83 42.95 292.83 48.09L292.83 48.09L292.83 48.71Q292.83 53.40 291.34 56.92Q289.86 60.44 287.08 62.40Q284.30 64.36 280.38 64.36L280.38 64.36Q277.62 64.36 275.54 63.40Q273.46 62.43 271.98 60.56L271.98 60.56L271.98 70.60L276.55 71.49L276.55 76.10ZM278.13 58.60L278.13 58.60Q281.81 58.60 283.58 55.88Q285.34 53.17 285.34 48.71L285.34 48.71L285.34 48.09Q285.34 44.76 284.56 42.25Q283.77 39.74 282.15 38.33Q280.53 36.92 278.07 36.92L278.07 36.92Q275.99 36.92 274.46 37.85Q272.93 38.79 271.98 40.48L271.98 40.48L271.98 55.22Q272.93 56.85 274.44 57.73Q275.96 58.60 278.13 58.60ZM317.90 63.74L296.93 63.74L296.93 59.17L301.65 58.27L301.65 25.99L296.93 25.10L296.93 20.49L301.65 20.49L315.91 20.49Q323.18 20.49 327.27 23.45Q331.35 26.40 331.35 32.29L331.35 32.29Q331.35 35.23 329.66 37.56Q327.97 39.89 324.97 41.02L324.97 41.02Q327.58 41.58 329.36 43.07Q331.14 44.55 332.08 46.68Q333.01 48.80 333.01 51.32L333.01 51.32Q333.01 57.41 329.02 60.58Q325.02 63.74 317.90 63.74L317.90 63.74ZM309.13 44.11L309.13 57.98L317.90 57.98Q321.58 57.98 323.55 56.27Q325.53 54.56 325.53 51.32L325.53 51.32Q325.53 49.04 324.79 47.43Q324.04 45.83 322.53 44.97Q321.02 44.11 318.64 44.11L318.64 44.11L309.13 44.11ZM309.13 26.29L309.13 38.73L316.74 38.73Q320.06 38.73 321.97 37.13Q323.87 35.52 323.87 32.64L323.87 32.64Q323.87 29.40 321.85 27.85Q319.83 26.29 315.91 26.29L315.91 26.29L309.13 26.29ZM351.70 64.36L351.70 64.36Q347.15 64.36 343.78 62.33Q340.41 60.29 338.55 56.70Q336.70 53.11 336.70 48.47L336.70 48.47L336.70 47.23Q336.70 42.53 338.52 38.86Q340.35 35.20 343.56 33.10Q346.77 31.01 350.87 31.01L350.87 31.01Q355.23 31.01 358.19 32.76Q361.14 34.51 362.66 37.74Q364.17 40.96 364.17 45.47L364.17 45.47L364.17 49.75L344.45 49.75L344.39 49.90Q344.51 52.42 345.44 54.38Q346.38 56.34 348.12 57.47Q349.86 58.60 352.35 58.60L352.35 58.60Q354.96 58.60 357.10 57.89Q359.24 57.18 361.05 55.87L361.05 55.87L363.40 60.56Q361.50 62.17 358.56 63.26Q355.62 64.36 351.70 64.36ZM344.48 44.34L344.57 44.49L357.01 44.49L357.01 43.72Q357.01 41.61 356.37 40.02Q355.74 38.43 354.38 37.54Q353.03 36.65 350.95 36.65L350.95 36.65Q349.14 36.65 347.78 37.66Q346.41 38.67 345.59 40.41Q344.78 42.15 344.48 44.34L344.48 44.34ZM383.92 64.36L383.92 64.36Q379.38 64.36 376.01 62.33Q372.64 60.29 370.78 56.70Q368.92 53.11 368.92 48.47L368.92 48.47L368.92 47.23Q368.92 42.53 370.75 38.86Q372.58 35.20 375.78 33.10Q378.99 31.01 383.09 31.01L383.09 31.01Q387.46 31.01 390.41 32.76Q393.37 34.51 394.88 37.74Q396.40 40.96 396.40 45.47L396.40 45.47L396.40 49.75L376.68 49.75L376.62 49.90Q376.74 52.42 377.67 54.38Q378.61 56.34 380.34 57.47Q382.08 58.60 384.58 58.60L384.58 58.60Q387.19 58.60 389.33 57.89Q391.47 57.18 393.28 55.87L393.28 55.87L395.63 60.56Q393.72 62.17 390.78 63.26Q387.84 64.36 383.92 64.36ZM376.71 44.34L376.79 44.49L389.24 44.49L389.24 43.72Q389.24 41.61 388.60 40.02Q387.96 38.43 386.61 37.54Q385.26 36.65 383.18 36.65L383.18 36.65Q381.37 36.65 380.00 37.66Q378.64 38.67 377.82 40.41Q377.00 42.15 376.71 44.34L376.71 44.34Z"
          transform="translate(0, 0)"></path>
      </g>
    </svg>
  </g>
</svg>